<svg id="Capa_1" data-name="Capa 1" xmlns="http://www.w3.org/2000/svg" viewBox="0 0 768.69 262.48"><defs><style>.cls-1{fill:#55bcbd;}.cls-2{fill:none;stroke:#55bcbd;stroke-miterlimit:10;stroke-width:3px;}</style></defs><path d="M329.45,580.29c-28.09,10.34-56.48-6.77-74.58-60.18l-6.9-20.4h-48.9L186.72,531.5c-2.6,7.14,2.18,11.19,6.78,11.19h1.56v1.77H159.18v-1.78h1.61c5.2,0,11.48-3,15.16-10.27l44.14-106c-7.73-11.07-19.07-17.66-37.54-11l-.5-1.8c41.77-17.69,54.28,16.44,63.14,41.53l21.75,61.61c10.06,28.56,30,68.67,62.37,61.72Zm-83.29-85.92-14.09-41.58a145.19,145.19,0,0,0-7.45-18.69l-23.47,60.27Z" transform="translate(-155.56 -408.76)"/><path d="M429.84,419.68l0,1.78h-3.29a11,11,0,0,0-11,10.65v92.11A182.43,182.43,0,0,0,417.14,547h-1.62L318.3,443.26V532a11,11,0,0,0,11,10.67h3.29l0,1.78H295.9l0-1.78h3.29a11,11,0,0,0,11-10.8V439.28A155.3,155.3,0,0,0,308.58,417h1.76l97.08,103.66V432.26a11,11,0,0,0-11-10.8h-3.29l0-1.79Z" transform="translate(-155.56 -408.76)"/><path d="M472,531.47a11.42,11.42,0,0,0,11.42,11.21h2.25l0,1.78h-39l0-1.78H449a11.43,11.43,0,0,0,11.42-11.21V432.58A11.43,11.43,0,0,0,449,421.44h-2.25l0-1.78h39l0,1.78h-2.26A11.42,11.42,0,0,0,472,432.54Zm66.19,3.92c4.88,4.88,9.6,7.09,16.84,7.28v1.77h-7.53c-5,0-18.68-.55-26.86-10.1l-42.91-52,42-52.72c3-4,.61-8.42-4.29-8.42h-1.72v-1.57h37.65v1.6h-.78a25.78,25.78,0,0,0-19.2,8.34l-42,48.47Z" transform="translate(-155.56 -408.76)"/><path d="M664.85,531.45c3.61,7.94,10.2,11.23,15.66,11.23H682v1.78H641.86v-1.77h1.57c4.6,0,9.38-4.05,6.77-11.19l-11.4-30.36h-48l-11.95,30.47c-2.51,7.07,2.24,11.09,6.82,11.09h1.57v1.76H551.34v-1.78H553c5.42,0,12-3.29,15.61-11.21L609,435.54s6.6-14.44,6.6-18.36h1.61Zm-28.06-35.66-21.48-57.21-22.43,57.21Z" transform="translate(-155.56 -408.76)"/><path d="M738.83,419.67c21.6,0,34.84,12.73,34.84,33.51,0,17.25-13.14,34-30.28,34,3.82,1.76,9.3,7.66,12.75,12.54,0,0,15.37,21.94,22.27,29.48,7.17,7.83,13.77,13.4,24.25,13.48v1.79h-9.78c-16.59,0-25.5-8.94-31.1-15.63-2-2.42-22.12-31.65-23.49-33.37-4.66-5.85-9.86-12-16.37-12v-1.64s4.05.08,9.42-.06c9.25-.25,22.76-2.46,27.82-18.51a37.05,37.05,0,0,0,1.14-10.68c-.44-16.12-8.84-26.45-22.12-27.17-9.08-.5-19.87-.06-22.19-.14V531.47a11.43,11.43,0,0,0,11.42,11.22h2.25l0,1.78H690.75l0-1.78H693a11.41,11.41,0,0,0,11.41-11.13v-98.9A11.42,11.42,0,0,0,693,421.45h-2.26l0-1.77Z" transform="translate(-155.56 -408.76)"/><path d="M907.1,531.45c3.61,7.94,10.2,11.23,15.66,11.23h1.49v1.78H884.11v-1.77h1.57c4.6,0,9.38-4.05,6.77-11.19l-11.4-30.36H833l-11.94,30.47c-2.51,7.07,2.24,11.09,6.82,11.09h1.56v1.76H793.59v-1.78h1.61c5.42,0,12-3.29,15.61-11.21l40.43-95.93s6.6-14.44,6.6-18.36h1.61ZM879,495.79l-21.48-57.21-22.43,57.21Z" transform="translate(-155.56 -408.76)"/><path class="cls-1" d="M708.15,596.91a4.91,4.91,0,0,1-1.11-1.25c-.84-1.25-.7-2.36.28-2.5,1.39,0,5.14-3.75,8.89-8.48l1.11-1.11c2.36-3.75,4.44-6.94,6-9.44a34.48,34.48,0,0,1,3.89-5.7c.14-.55.55-.69,1.25-.55h.14c2.78.83,3.75,2.36,3,4.86-.55,2.08-5.27,9-10.14,15-2.64,4-5.83,8.61-9.3,13.47-4.17,5.84-10.56,15.14-17.37,25,5.84.14,15.56.56,25.42-6.8.56-.42,1.25-1.53,2.23-.28s1.52,2.64.83,3.06c-13.61,10.14-25.84,9.3-31.25,8.19l-1,1.25c.28,3.34.14,9-1.8,17.64a30.4,30.4,0,0,1-7.92,15c-4.72,4.87-10.28,7.23-13.33,7l-.14-.14a1.26,1.26,0,0,1-.7-.14l-.27-.14c-3.2-1.52-3.48-4.58-1.67-8.47,1.25-2.5,3.19-6,5.56-10,4.16-7,9.86-15.7,15.69-24.31a9.05,9.05,0,0,0-.28-1.39c-.41-1.25.14-2.08,1.25-1.66h.14a5.19,5.19,0,0,0,.84.27c7.5-11.11,15-21.67,19.58-28.19Zm-22.09,42.36c-4.16,6.25-7.91,12.23-11,17.23-2.08,3.33-3.75,6.39-4.86,8.61a24.52,24.52,0,0,0,7.08-5.14,30.52,30.52,0,0,0,7.5-14.17C685.37,643.3,685.79,641.22,686.06,639.27Z" transform="translate(-155.56 -408.76)"/><path class="cls-1" d="M725.09,612.46c.56-.41,1.95.14,3.06,1.39s1.39,2.64.83,3.2a8.21,8.21,0,0,0-1.11.83c-2.92,2.64-5.28,7-6.81,11.25-1.11,3.61-1.66,7-1,8.34a4.35,4.35,0,0,0,2.64,0,10.94,10.94,0,0,0,4.17-2.64,24.92,24.92,0,0,0,5.42-7.36,28.9,28.9,0,0,0,2.22-5.7,19.72,19.72,0,0,1-5.42-7.08,14.88,14.88,0,0,1-1.39-6.81c.28-1.94,1.11-3.33,2.78-3.61A6.06,6.06,0,0,1,734,605a10.22,10.22,0,0,1,4.31,4.73,15,15,0,0,1,1.53,5,22.07,22.07,0,0,1,0,6,17.55,17.55,0,0,0,12.5-1.67c.69-.41,1.39-1,2.5.28s.83,2.22.14,2.64c-6.53,3.61-11.39,4.17-15.7,2.64a24.83,24.83,0,0,1-2.64,6.94,26.85,26.85,0,0,1-5.69,7.78,13.74,13.74,0,0,1-4.73,2.92,6.76,6.76,0,0,1-5.41-.56,10.07,10.07,0,0,1-2.78-2.22l-.84-.83c-2.22-3.2-2.08-8.34-.55-13.2,1.53-4.58,4.17-9.17,7.22-11.94C724.26,613.16,724.68,612.74,725.09,612.46Zm10.14,6a23.3,23.3,0,0,0,0-6.25,12.49,12.49,0,0,0-.69-3.06h.14a1.15,1.15,0,0,0-1,0c-.83,0-1.25.83-1.38,2.08a8.42,8.42,0,0,0,.83,4.31A7.1,7.1,0,0,0,735.23,618.44Z" transform="translate(-155.56 -408.76)"/><path class="cls-1" d="M760.79,604.55c.41-.7,1.8-.28,2.91.83s1.81,2.64,1.39,3.33l-5.14,8.2c4.87-2.36,11.53-4.58,14.31-1.11,1.25,1.39.83,4.58,2.64,4.72A33.47,33.47,0,0,0,787.18,619c.83-.28,1.67-1,2.5.28s.41,1.81-.42,2c-4,1.24-10.69,2.63-13.61,2.36-3.61-.28-4.72-1.25-7.78-4.87-2.08-2.5-14.45,8.48-14.45,8.48-.27.14-7.5,12.36-8.19,13.61-.42.69-1.81.28-2.92-.83s-1.8-2.64-1.39-3.34Z" transform="translate(-155.56 -408.76)"/><path class="cls-1" d="M837.31,607.88c.28-.69,1.67-.28,2.78.83s1.95,2.5,1.53,3.34l-2.5,4.3c4.3-4.16,8.47-7.64,11.11-8.61,8.61-2.92,7.22,6.53,4.45,15a6.35,6.35,0,0,1,1.38-.69,8.83,8.83,0,0,1,3.34-1c2.22-.14,4,1,5.28,3.61.69,1.52.69,3.89-.42,7.08-.14.28,14.86-12.08,15-12.08.56-.56,1.81-2.09,2.92-.84s1.11,1.95.55,2.5c-.13.14-33.33,35.15-22.91,6.53.13-.55.27-1,.41-1.53l-.55.28c-3.75,2-8.62,6-9.59,7.64v.14c-.41.83-1.66.56-2.91-.55s-1.81-2.64-1.53-3.34c0-.14,8.47-18.19,8.05-18.06-7.5,2.64-27.5,27.09-27.64,27.23-.41.55-1.66.14-2.78-.84s-1.8-2.63-1.38-3.33Z" transform="translate(-155.56 -408.76)"/><path class="cls-1" d="M895,620.66a44.35,44.35,0,0,1-14.3,4.17c-9.45,20.28,28.05,3,32.36-4.73a2,2,0,0,1,3.06-.69c1.11,1.11,1.11,1.67.69,2.5-3.89,6.81-25.56,21.81-35.14,16.39a13,13,0,0,1-6.53-13.61,23.41,23.41,0,0,1,5.56-10.28,61.91,61.91,0,0,1,9-8.2c4-2.77,7.77-4.44,9.3-4.16a6.18,6.18,0,0,1,3.34,2.08,6,6,0,0,1,1.66,5,11.89,11.89,0,0,1-1.39,3.89A18.38,18.38,0,0,1,895,620.66Zm-9.86-2.22a51.58,51.58,0,0,0,6.25-2.36,18.9,18.9,0,0,0,6.95-7.09c.28-.55.41-1,.69-1.53a32.43,32.43,0,0,0-5.42,3.34A54,54,0,0,0,885.09,618.44Z" transform="translate(-155.56 -408.76)"/><path class="cls-2" d="M155.75,624.33a811.13,811.13,0,0,0,135.18,5.56c55.61-2.36,110.61-13.43,166-19.49,31.93-3.49,92.28-9.71,165.9,1.87a538.82,538.82,0,0,1,65.93,14.64" transform="translate(-155.56 -408.76)"/></svg>