<svg id="Capa_1" data-name="Capa 1" xmlns="http://www.w3.org/2000/svg" viewBox="0 0 797.52 259.99"><defs><style>.cls-1{fill:#fff;}.cls-2{fill:#1d1d1b;}</style></defs><path class="cls-1" d="M310.64,580.6c-27.94,10.28-56.18-6.74-74.18-59.85l-6.87-20.29H181l-12.28,31.62c-2.59,7.09,2.16,11.13,6.73,11.13H177V545H141.3v-1.77h1.59c5.17,0,11.42-3,15.08-10.21l43.9-105.4c-7.69-11-19-17.57-37.33-10.93l-.5-1.79c41.54-17.58,54,16.36,62.79,41.31l21.63,61.28c10,28.4,29.8,68.29,62,61.38Zm-82.85-85.46-14-41.35a143.58,143.58,0,0,0-7.42-18.58L183,495.14Z" transform="translate(-141.24 -410)"/><path class="cls-1" d="M408,420.86l0,1.77h-3.27a10.94,10.94,0,0,0-10.94,10.6v91.6a181.41,181.41,0,0,0,1.61,22.62h-1.61L297,444.32v88.27a11,11,0,0,0,11,10.61h3.27l0,1.77H274.74l0-1.77h3.28A11,11,0,0,0,289,532.46v-92.1a154.47,154.47,0,0,0-1.63-22.15h1.75L385.65,521.3V433.38a11,11,0,0,0-10.94-10.75h-3.27l0-1.77Z" transform="translate(-141.24 -410)"/><path class="cls-1" d="M446.07,532.05a11.37,11.37,0,0,0,11.36,11.14h2.24l0,1.78H420.91l0-1.78h2.24a11.36,11.36,0,0,0,11.36-11.14V433.7a11.35,11.35,0,0,0-11.35-11.08h-2.25l0-1.77H459.7l0,1.77h-2.24a11.37,11.37,0,0,0-11.36,11Zm65.84,3.89c4.85,4.85,9.54,7.06,16.75,7.24v1.76h-7.5c-5,0-18.57-.54-26.71-10l-42.68-51.66,41.82-52.43c3-4,.6-8.38-4.27-8.38h-1.71v-1.57h37.45v1.6h-.78a25.63,25.63,0,0,0-19.1,8.3L463.41,479Z" transform="translate(-141.24 -410)"/><path class="cls-1" d="M654.52,532c3.58,7.89,10.14,11.16,15.57,11.16h1.48V545H631.65v-1.75h1.56c4.58,0,9.33-4,6.74-11.13l-11.34-30.2H580.85L569,532.19c-2.5,7,2.22,11,6.77,11h1.56V545H541.63v-1.78h1.59c5.39,0,11.95-3.26,15.53-11.15L599,436.64s6.56-14.36,6.56-18.26h1.6Zm-27.91-35.47-21.37-56.9-22.3,56.9Z" transform="translate(-141.24 -410)"/><path class="cls-1" d="M732.37,420.86c21.48,0,34.65,12.66,34.65,33.32C767,471.34,754,488,736.9,488c3.8,1.76,9.25,7.63,12.69,12.48,0,0,15.28,21.82,22.14,29.32,7.14,7.79,13.7,13.32,24.11,13.4V545h-9.72c-16.5,0-25.36-8.88-30.93-15.54-2-2.41-22-31.47-23.36-33.18-4.63-5.83-9.8-12-16.28-12v-1.64s4,.09,9.37-.06c9.19-.25,22.64-2.44,27.67-18.41a37,37,0,0,0,1.13-10.61c-.44-16-8.8-26.31-22-27-9-.49-19.78,0-22.08-.14V532.05A11.37,11.37,0,0,0,721,543.2h2.24l0,1.77H684.55l0-1.77h2.24a11.36,11.36,0,0,0,11.35-11.07V433.77a11.37,11.37,0,0,0-11.36-11.15h-2.24l0-1.76Z" transform="translate(-141.24 -410)"/><path class="cls-1" d="M921.7,532c3.59,7.89,10.15,11.16,15.58,11.16h1.48V545H898.84v-1.75h1.56c4.57,0,9.32-4,6.73-11.13l-11.34-30.2H848l-11.87,30.31c-2.51,7,2.22,11,6.77,11h1.56V545H808.81v-1.78h1.6c5.39,0,11.94-3.26,15.53-11.15l40.21-95.4s6.56-14.36,6.56-18.26h1.6Zm-27.9-35.47-21.37-56.9-22.3,56.9Z" transform="translate(-141.24 -410)"/><path class="cls-2" d="M358.57,665.72a14.63,14.63,0,0,1-7-12.06H360q.42,6.45,4.38,9.39t11.75,3c4.34,0,7.61-.77,9.78-2.32a7.73,7.73,0,0,0,3.26-6.73,7.36,7.36,0,0,0-1.19-4.21,10,10,0,0,0-4.42-3.15,47.37,47.37,0,0,0-9.26-2.6,54.74,54.74,0,0,1-15.46-5.18q-6-3.3-6-9.54a10,10,0,0,1,6.31-9.79q6.31-2.91,16.27-2.91,10.8,0,16.48,3.65a12.88,12.88,0,0,1,6.32,9.89H390q-1-5.11-4.7-7.33T375,623.57q-6,0-8.9,2a6,6,0,0,0-2.95,5.22,5.23,5.23,0,0,0,1,3.23,9.8,9.8,0,0,0,4.11,2.66,53.8,53.8,0,0,0,8.87,2.53,89.22,89.22,0,0,1,12.41,3.44,17.29,17.29,0,0,1,7.29,4.9,12.41,12.41,0,0,1,2.67,8.28,11,11,0,0,1-2.88,7.61,18,18,0,0,1-8.13,4.87A40.43,40.43,0,0,1,376.28,670Q365.12,670,358.57,665.72Z" transform="translate(-141.24 -410)"/><path class="cls-2" d="M438.55,624.2H418.07v-4h51.27v4H448.86v45.09H438.55Z" transform="translate(-141.24 -410)"/><path class="cls-2" d="M494.41,664.32q-5.43-5.69-5.44-15.5V620.2h10.38v30.23q0,7.23,3,11.4T513.31,666q7.58,0,10.73-4t3.16-11.54V620.2h10.37v28.62q0,9.81-5.4,15.5T513.31,670Q499.84,670,494.41,664.32Z" transform="translate(-141.24 -410)"/><path class="cls-2" d="M561.84,620.2h20.34q14.24,0,21.77,6.07t7.54,17.64q0,12.35-7.43,18.86t-21.46,6.52H561.84Zm21.74,45.1q8.55,0,13-5.44t4.42-16q0-9.67-4.42-14.7t-13-5H572.22v41.1Z" transform="translate(-141.24 -410)"/><path class="cls-2" d="M637,620.2H647.4v49.09H637Z" transform="translate(-141.24 -410)"/><path class="cls-2" d="M685.72,667a21.49,21.49,0,0,1-9.57-8.73,27,27,0,0,1-3.3-13.71,26,26,0,0,1,3.33-13.47,21.72,21.72,0,0,1,9.58-8.59,34.28,34.28,0,0,1,14.86-3,33.93,33.93,0,0,1,14.77,3,21.7,21.7,0,0,1,9.53,8.59,26,26,0,0,1,3.34,13.47,27,27,0,0,1-3.3,13.71,21.52,21.52,0,0,1-9.54,8.73,33.69,33.69,0,0,1-14.8,3A34.12,34.12,0,0,1,685.72,667Zm27.6-6.49q4.41-5.5,4.42-16,0-10.24-4.42-15.64t-12.7-5.4q-8.34,0-12.79,5.43t-4.46,15.61q0,10.46,4.42,16T700.62,666Q708.9,666,713.32,660.49Z" transform="translate(-141.24 -410)"/><rect class="cls-2" x="627.08" y="232.74" width="170.28" height="4"/><rect class="cls-2" y="232.74" width="170.28" height="4"/></svg>