<svg id="Capa_1" data-name="Capa 1" xmlns="http://www.w3.org/2000/svg" viewBox="0 0 1037.1 187.85"><path d="M390.84,644c-29.38,10.92-59.17-6.9-78.3-62.76l-7.31-21.34L254,560l-12.82,33.33c-2.72,7.48,2.3,11.71,7.12,11.7H250v1.86l-37.58.12v-1.86h1.69c5.43,0,12-3.21,15.84-10.81l45.88-111.13c-8.15-11.58-20-18.44-39.36-11.37l-.54-1.88c43.69-18.67,56.91,17,66.27,43.27l23,64.45c10.64,29.86,31.61,71.81,65.52,64.42Zm-87.52-89.7-14.88-43.49a153.45,153.45,0,0,0-7.88-19.56L256.2,554.42Z" transform="translate(-15.01 -459.16)" fill="#f5867d"/><path d="M492.76,475.44l0,1.86h-3.45A11.54,11.54,0,0,0,477.8,488.5l.31,96.46a188.08,188.08,0,0,0,1.8,23.81H478.2L376.05,500.52l.3,92.94a11.51,11.51,0,0,0,11.56,11.13h3.44l0,1.87-38.45.12,0-1.86,3.43,0a11.53,11.53,0,0,0,11.49-11.34l-.31-97a162.86,162.86,0,0,0-1.79-23.32h1.84l102,108.21-.3-92.56a11.52,11.52,0,0,0-11.55-11.28h-3.45l0-1.87Z" transform="translate(-15.01 -459.16)" fill="#f5867d"/><path d="M533.29,592.39a12,12,0,0,0,12,11.69h2.36l0,1.87-40.84.13V604.2h2.37a11.94,11.94,0,0,0,11.91-11.77l-.33-103.57a12,12,0,0,0-12-11.62h-2.35l0-1.85,40.84-.13,0,1.85h-2.36A12,12,0,0,0,533,488.8Zm69.33,3.88c5.12,5.08,10.07,7.38,17.66,7.56v1.85l-7.88,0c-5.26,0-19.56-.52-28.18-10.48L539.11,541,583,485.62c3.15-4.18.59-8.82-4.53-8.8h-1.81v-1.65l39.44-.12v1.67h-.81a27,27,0,0,0-20.1,8.79l-43.81,50.91Z" transform="translate(-15.01 -459.16)" fill="#f5867d"/><path d="M752.78,591.67c3.78,8.27,10.7,11.7,16.42,11.68h1.57v1.87l-42,.14v-1.85h1.63c4.83,0,9.81-4.29,7.07-11.76l-12-31.74-50.28.16L662.7,592.1c-2.62,7.43,2.37,11.62,7.17,11.6h1.65v1.84l-37.58.12v-1.87h1.68c5.69,0,12.57-3.47,16.32-11.78l42-100.6s6.84-15.14,6.83-19.24h1.7ZM723.26,554.4l-22.69-59.83-23.29,60Z" transform="translate(-15.01 -459.16)" fill="#f5867d"/><path d="M834.36,474.34c22.63-.08,36.53,13.21,36.6,35,.06,18.08-13.65,35.64-31.59,35.7,4,1.83,9.76,8,13.4,13.09,0,0,16.15,22.93,23.41,30.8,7.54,8.17,14.46,14,25.43,14v1.86l-10.23,0c-17.37.06-26.72-9.27-32.62-16.25-2.13-2.53-23.26-33.08-24.71-34.87-4.9-6.11-10.36-12.56-17.19-12.53v-1.73s4.24.07,9.86-.09c9.68-.3,23.84-2.66,29.08-19.48A38.71,38.71,0,0,0,857,508.69c-.51-16.9-9.35-27.68-23.25-28.4-9.52-.48-20.82,0-23.24-.07l.36,111.27a12,12,0,0,0,12,11.7h2.36l0,1.87-40.77.13v-1.87h2.37a12,12,0,0,0,11.91-11.69l-.33-103.57a12,12,0,0,0-12-11.7H784l0-1.85Z" transform="translate(-15.01 -459.16)" fill="#f5867d"/><path d="M1034.1,590.76c3.8,8.27,10.72,11.7,16.44,11.69h1.56v1.87l-42,.14v-1.84h1.64c4.82,0,9.8-4.29,7.06-11.75l-12-31.75-50.27.16L944,591.2c-2.63,7.42,2.36,11.61,7.16,11.6h1.65v1.84l-37.59.13v-1.88H917c5.67,0,12.58-3.48,16.31-11.79l42-100.59s6.86-15.15,6.84-19.25h1.68Zm-29.51-37.26L981.9,493.66l-23.28,60Z" transform="translate(-15.01 -459.16)" fill="#f5867d"/><path d="M152.12,516c.09-1.35.15-2.69.15-4a53,53,0,0,0-106,.34c0,1.09,0,2.19.12,3.31A53,53,0,0,0,68.16,617,52.33,52.33,0,0,0,98.8,607.1a52.45,52.45,0,0,0,30.72,9.69A53,53,0,0,0,152.12,516m-53-50.12A46.35,46.35,0,0,1,145.58,512c0,.5,0,1,0,1.53A120,120,0,0,0,127,510.3a27.76,27.76,0,0,0-55.45,2.12c0,.75.61,18.25,24.11,52.89-6,8.12-10.81,12.53-13.94,14.84C58.32,548.83,54,523.22,53.37,518.33l-.11-1a46.37,46.37,0,0,1,45.86-51.55m21.08,43.86a374.61,374.61,0,0,0-41.78-.46,21.08,21.08,0,0,1,41.78.46M99.7,559.43a206.94,206.94,0,0,1-11.78-19.87l23,.32A202.47,202.47,0,0,1,99.7,559.43M54.86,547.19a176,176,0,0,0,20.89,36.18,21.09,21.09,0,0,1-20.89-36.18m13.27,63.12a46.29,46.29,0,0,1-20.85-87.69,110.7,110.7,0,0,0,5.08,18.19,27.72,27.72,0,0,0-9.47,35.25A27.82,27.82,0,0,0,68,591.6a27.53,27.53,0,0,0,11.87-2.72c2.9-1,18.26-8,38.53-48.89,0,0,13.78-.77,18.5,3-22,40.57-34.07,52.44-38.1,55.68l-2,1.64a45.8,45.8,0,0,1-28.59,10m74-63a21.07,21.07,0,0,1-15.69,35,36.51,36.51,0,0,1-4.88-.61c5.62-8.32,12.44-19.47,20.57-34.37M129.5,610.12a45.86,45.86,0,0,1-25.06-7.29c2.85-2.58,7.14-7.18,13-15.35a28.93,28.93,0,0,0,8.69,1.48h.17a27.78,27.78,0,0,0,5.88-54.91c-6-1.29-24.48-1.1-24.48-1.1l-23.09-.12a85.14,85.14,0,0,1-5.92-16.92c49.79-1.91,67.12,4.61,68.38,5.11l.15.07a46.32,46.32,0,0,1-17.77,89" transform="translate(-15.01 -459.16)" fill="#f5867d"/></svg>