<svg id="Capa_1" data-name="Capa 1" xmlns="http://www.w3.org/2000/svg" viewBox="0 0 780.43 389.66"><defs><style>.cls-1{fill:#f36e63;}</style></defs><path class="cls-1" d="M315.51,732c-27.34,10.07-55-6.59-72.59-58.56l-6.72-19.86H188.61l-12,30.94c-2.53,6.94,2.11,10.89,6.59,10.89h1.53v1.72H149.79v-1.73h1.56c5.06,0,11.17-3,14.75-10l43-103.15c-7.53-10.77-18.57-17.19-36.54-10.69l-.49-1.75c40.66-17.21,52.83,16,61.45,40.43l21.17,60c9.79,27.8,29.17,66.84,60.7,60.07Zm-81.08-83.62-13.7-40.48a142.28,142.28,0,0,0-7.26-18.18l-22.84,58.65Z" transform="translate(-149.79 -345.17)"/><path class="cls-1" d="M410.74,575.72l0,1.73h-3.2a10.72,10.72,0,0,0-10.71,10.38v89.64a175.9,175.9,0,0,0,1.59,22.13h-1.58L302.19,598.67v86.39a10.71,10.71,0,0,0,10.7,10.38h3.21l0,1.74H280.38l0-1.74h3.2a10.71,10.71,0,0,0,10.71-10.5V594.8a151.75,151.75,0,0,0-1.59-21.68h1.71L388.92,674V588a10.71,10.71,0,0,0-10.71-10.52H375l0-1.73Z" transform="translate(-149.79 -345.17)"/><path class="cls-1" d="M448.05,684.53a11.12,11.12,0,0,0,11.12,10.91h2.19l0,1.73h-38l0-1.73h2.19a11.12,11.12,0,0,0,11.11-10.91V588.28a11.12,11.12,0,0,0-11.11-10.84h-2.19l0-1.73h38l0,1.73h-2.2a11.12,11.12,0,0,0-11.11,10.8Zm64.43,3.81c4.75,4.75,9.34,6.91,16.39,7.09v1.72h-7.33c-4.89,0-18.18-.53-26.15-9.83l-41.76-50.56,40.92-51.31c2.95-3.87.59-8.2-4.17-8.2H488.7v-1.53h36.65v1.56h-.76a25.11,25.11,0,0,0-18.69,8.12L465,632.58Z" transform="translate(-149.79 -345.17)"/><path class="cls-1" d="M652,684.51c3.51,7.72,9.93,10.93,15.24,10.93h1.46v1.73H629.67v-1.72h1.52c4.48,0,9.13-4,6.59-10.89L626.69,655H580l-11.62,29.66c-2.45,6.87,2.17,10.78,6.63,10.78h1.53v1.72H541.56v-1.73h1.57c5.27,0,11.69-3.2,15.2-10.91l39.34-93.37s6.43-14,6.43-17.87h1.56ZM624.73,649.8l-20.91-55.68L582,649.8Z" transform="translate(-149.79 -345.17)"/><path class="cls-1" d="M728.23,575.72c21,0,33.91,12.39,33.91,32.6,0,16.8-12.79,33.09-29.48,33.09,3.73,1.71,9.06,7.46,12.42,12.21,0,0,15,21.35,21.68,28.69,7,7.62,13.4,13,23.59,13.12v1.74h-9.52c-16.14,0-24.81-8.7-30.27-15.21-2-2.36-21.52-30.8-22.85-32.48-4.54-5.69-9.6-11.7-15.94-11.7v-1.61s4,.08,9.17-.06c9-.24,22.16-2.39,27.08-18a35.91,35.91,0,0,0,1.11-10.39C748.7,592,740.52,582,727.6,581.26c-8.84-.49-19.35-.06-21.6-.14V684.53a11.11,11.11,0,0,0,11.11,10.91h2.2l0,1.74H681.43l0-1.74h2.2a11.1,11.1,0,0,0,11.1-10.82V588.35a11.12,11.12,0,0,0-11.11-10.91h-2.19l0-1.72Z" transform="translate(-149.79 -345.17)"/><path class="cls-1" d="M913.52,684.51c3.51,7.72,9.93,10.93,15.24,10.93h1.45v1.73H891.15v-1.72h1.52c4.48,0,9.13-4,6.59-10.89L888.17,655H841.43l-11.62,29.66c-2.45,6.87,2.17,10.78,6.63,10.78H838v1.72H803v-1.73h1.57c5.27,0,11.69-3.2,15.19-10.91l39.35-93.37s6.43-14,6.43-17.87h1.56ZM886.21,649.8,865.3,594.12,843.47,649.8Z" transform="translate(-149.79 -345.17)"/><path class="cls-1" d="M601.55,412c.12-1.59.19-3.15.19-4.67a62.18,62.18,0,0,0-124.35,0c0,1.28,0,2.57.12,3.88a62.18,62.18,0,0,0,25.15,119,61.5,61.5,0,0,0,36-11.5,61.44,61.44,0,0,0,36,11.5A62.19,62.19,0,0,0,601.55,412Zm-62-59a54.4,54.4,0,0,1,54.34,54.34c0,.6,0,1.2,0,1.8A141.1,141.1,0,0,0,572,405.3,32.57,32.57,0,0,0,507,407.58c0,.87.66,21.4,28.08,62.14-7.06,9.5-12.72,14.66-16.39,17.37-27.29-36.84-32.26-66.91-33-72.65l-.12-1.12a53.3,53.3,0,0,1-.34-6A54.41,54.41,0,0,1,539.56,353Zm24.57,51.56a435.25,435.25,0,0,0-49-.71,24.73,24.73,0,0,1,49,.71Zm-24.25,58.27a247.24,247.24,0,0,1-13.75-23.35l27,.46A238.67,238.67,0,0,1,539.88,462.83ZM487.32,448.3a206.08,206.08,0,0,0,24.36,42.54,24.75,24.75,0,0,1-24.36-42.54Zm15.34,74.12a54.32,54.32,0,0,1-24.16-103,131,131,0,0,0,5.9,21.36,32.55,32.55,0,0,0-11.24,41.33,32.6,32.6,0,0,0,43.3,15.19c3.41-1.15,21.47-9.29,45.41-57.23,0,0,16.16-.85,21.69,3.59-26,47.53-40.18,61.42-44.9,65.2h0l-2.43,1.91A53.74,53.74,0,0,1,502.66,522.42Zm87-73.64a24.72,24.72,0,0,1-18.56,41,40.11,40.11,0,0,1-5.72-.74C572.05,479.28,580.1,466.23,589.7,448.78Zm-15.05,73.64a53.62,53.62,0,0,1-29.37-8.64c3.36-3,8.41-8.41,15.36-18a34.61,34.61,0,0,0,10.2,1.77h.2a32.6,32.6,0,0,0,7.1-64.42c-7-1.53-28.72-1.39-28.72-1.39l-27.09-.21a100.5,100.5,0,0,1-6.88-19.9c58.43-2,78.74,5.67,80.22,6.28l.18.07a54.35,54.35,0,0,1-21.2,104.39Z" transform="translate(-149.79 -345.17)"/></svg>