<svg id="Capa_1" data-name="Capa 1" xmlns="http://www.w3.org/2000/svg" xmlns:xlink="http://www.w3.org/1999/xlink" viewBox="0 0 560 500"><defs><style>.cls-1{fill:none;}.cls-2{fill:#d2cfcf;}.cls-3{clip-path:url(#clip-path);}.cls-4{fill:#568da2;}.cls-5{fill:#fff;}.cls-6{fill:#55bcbd;}.cls-7{opacity:0.8;}.cls-8{fill:#ebf5f8;}</style><clipPath id="clip-path"><rect class="cls-1" width="560" height="500"/></clipPath></defs><rect class="cls-2" width="560" height="500"/><g class="cls-3"><path class="cls-4" d="M722.4,392.49c-24.76-47.45-99.77-46.87-221.48-45.93-42.57.33-76.28,4.36-84.9,24.09-10.27,23.52,23.18,50.84,14,65.5-15.69,25.12-118.26-48.29-183.09-12.8-44.41,24.31-70.84,99.59-49.46,146.79,47.35,104.54,355,128.31,479.14-18.06C711.28,511.22,746.8,439.22,722.4,392.49Z"/><path class="cls-5" d="M511.74,470.88c9.17-11.26,12.72-24.17,13.36-38.16-.06,1.8-.09,3.61-.19,5.42a62,62,0,0,1-3.72,17.77,56.3,56.3,0,0,1-7.43,13.73A2.4,2.4,0,0,1,511.74,470.88Z"/><path class="cls-5" d="M494.9,269.53a5.9,5.9,0,0,1,3.61-.37c3.16.58,6.33,1.19,9.45,1.95a50.24,50.24,0,0,1,12.23,4.62,51.13,51.13,0,0,1,9.65,6.8C519.65,274.41,507.91,270.65,494.9,269.53Z"/><path class="cls-5" d="M484.84,402c-9.29,3.9-18.46,8-26.76,13.87l-.27-.4a12.22,12.22,0,0,1,1.47-1.24c2.87-1.72,5.72-3.46,8.65-5.07a122.06,122.06,0,0,1,15.94-6.89A9.87,9.87,0,0,1,484.84,402Z"/><path class="cls-5" d="M538.11,464.24c.07-.39,0-.58.13-.66,2.32-2.34,3.52-5.34,4.66-8.35,1.59-4.19,3.13-8.4,4.67-12.61a19.52,19.52,0,0,1,1.28-3.21c-.52,1.9-.94,3.84-1.59,5.69-1.64,4.67-3.37,9.32-5.1,14a11.2,11.2,0,0,1-2.93,4.42A10.6,10.6,0,0,1,538.11,464.24Z"/><path class="cls-5" d="M503.8,360.13a116.89,116.89,0,0,0-33,1.68c.72-.2,1.43-.44,2.15-.59a95.44,95.44,0,0,1,21.06-2,67,67,0,0,1,9.08.78C503.32,360,503.56,360.08,503.8,360.13Z"/><path class="cls-5" d="M508.08,462.05c2.9-7.45,5.62-15,6.82-23.08a51.13,51.13,0,0,0,.29-11.4c-.05-.63-.05-1.26-.07-1.9,0,0,.08,0,.22-.11a53.56,53.56,0,0,1,.17,12.65,65.34,65.34,0,0,1-3.18,13c-.92,2.7-1.86,5.38-2.86,8A27.36,27.36,0,0,1,508.08,462.05Z"/><path class="cls-5" d="M532.31,304.44a71.7,71.7,0,0,1,11.34,10.06,98.15,98.15,0,0,1,12.24,15.36,3.36,3.36,0,0,1,.59,1.54c-.66-1-1.31-2-2-2.95A114.62,114.62,0,0,0,535.21,307c-1-.85-1.91-1.73-2.86-2.6Z"/><path class="cls-5" d="M489.83,431.24c-8.8,2.35-17.18,5.65-24.58,11.79a2.09,2.09,0,0,1,1.18-1.71,50.52,50.52,0,0,1,15.16-8c2.71-.88,5.46-1.65,8.19-2.47Z"/><path class="cls-5" d="M484,343.36a5.27,5.27,0,0,1,.86-.25,57.37,57.37,0,0,1,19,1.5,39.35,39.35,0,0,1,6.38,2.48,65.92,65.92,0,0,1,6.3,3.51c-1-.56-2.11-1.08-3.12-1.68a39.05,39.05,0,0,0-18.26-5.26c-3.21-.18-6.43-.15-9.65-.23-.51,0-1-.06-1.53-.09Z"/><path class="cls-5" d="M485.25,296.08c1-.06,1.92-.18,2.87-.16a53.41,53.41,0,0,1,14.05,2.52,44.19,44.19,0,0,1,9.39,4c-2.25-.94-4.26-1.89-6.35-2.6a59.94,59.94,0,0,0-6.58-1.83,63.75,63.75,0,0,0-6.59-1.09c-2.24-.25-4.51-.29-6.76-.42Z"/><path class="cls-5" d="M561.27,437.86c.13-9.51-2.45-18.47-5.43-27.34C559.42,419.26,561.86,428.25,561.27,437.86Z"/><path class="cls-5" d="M514.49,407.25c5.31-7.9,11.33-15.31,16.32-23.6a4.88,4.88,0,0,1-1.11,2.81c-1.47,1-2,2.71-3,4-1.65,2.17-3,4.53-4.66,6.73C519.6,400.6,517,403.91,514.49,407.25Z"/><path class="cls-5" d="M505.31,302.69c-3.7-.94-7.11-2.06-10.62-2.61s-7-.49-10.41-.69C486.75,297.73,499.21,299.61,505.31,302.69Z"/><path class="cls-5" d="M468.54,348.66a11.63,11.63,0,0,1,1.42-.79,28.68,28.68,0,0,1,9.34-2.23,45.16,45.16,0,0,1,9.92.46c-.93,0-1.87,0-2.8,0a44.48,44.48,0,0,0-11.17.78c-1.9.45-3.75,1.18-5.62,1.77l-1,.29Z"/><path class="cls-5" d="M557.48,436.35c-.07,2.57,0,5.16-.23,7.72A48.45,48.45,0,0,1,554.81,455a10,10,0,0,1-.51,1.16.91.91,0,0,1-.67.51c.21-.67.42-1.34.64-2a63.64,63.64,0,0,0,3-17.43,5.86,5.86,0,0,1,.18-.91Z"/><path class="cls-5" d="M468.39,454.28c1.25-2.74,10.41-8.7,15.78-10.37C478.72,447,473.1,449.9,468.39,454.28Z"/><path class="cls-5" d="M557.16,356.35A182.59,182.59,0,0,0,568,335.25,86.19,86.19,0,0,1,557.16,356.35Z"/><path class="cls-5" d="M509,471.64a76.14,76.14,0,0,0,8.54-17.85C515.71,460.26,513.36,466.47,509,471.64Z"/><path class="cls-5" d="M472.54,363.53c-2.54.78-5.13,1.41-7.6,2.37a62.37,62.37,0,0,0-6,3c-.58.3-1.14.65-1.71,1l-.18-.26a4.42,4.42,0,0,1,.69-.74,35.51,35.51,0,0,1,13.51-5.55,3.78,3.78,0,0,1,1.29.23Z"/><path class="cls-5" d="M473.31,397.09c-2.84,1.18-5.7,2.3-8.5,3.56s-5.36,2.56-8,3.86c-.14.07-.24.2-.42.18.05-.74.57-1,1-1.23a49.11,49.11,0,0,1,4.77-2.36c3.68-1.47,7.4-2.81,11.11-4.19Z"/><path class="cls-5" d="M493.51,444.81c-.37,5.78-2.28,11.11-4.73,16.66,1-3.05,1.89-5.73,2.61-8.48s1.19-5.51,1.77-8.27Z"/><path class="cls-5" d="M516.4,390.39,501,390.26C502.61,389.39,514,389.51,516.4,390.39Z"/><path class="cls-5" d="M532.4,281.25l-2.52-1.54c-.88-.53-1.87-.85-2.44-1.86-.21-.36-.75-.54-1.16-.76a42.06,42.06,0,0,1-4.24-2.5c3.91,1.31,7.15,3.82,10.64,6.08l-.3.57Z"/><path class="cls-5" d="M532.38,281.24a12.7,12.7,0,0,1,4.63,3.11c2.53,2.52,5.06,5,7.48,7.68-4-3.63-7.76-7.53-12.09-10.78Z"/><path class="cls-5" d="M506.79,415.1c3.1-5.72,7.27-10.68,11.13-15.87Z"/><path class="cls-5" d="M490.86,289.24c1.29-5.43,2.31-11,5.56-15.66C493.62,278.45,492.5,283.94,490.86,289.24Z"/><path class="cls-5" d="M493.28,311.81c-2.32-.2-4.63-.51-6.95-.58s-4.6.12-7,.21a4.16,4.16,0,0,1,2.76-.73c3,.13,6.09.36,9.13.59a19.92,19.92,0,0,1,2.11.38S493.29,311.76,493.28,311.81Z"/><path class="cls-5" d="M489.61,313.89c-3.89-.41-7.78-.93-11.66.12C479.71,312.45,486.09,312.43,489.61,313.89Z"/><path class="cls-5" d="M543.12,401.12a61.7,61.7,0,0,0-7.64-10.22C538.91,393.6,541.14,397.26,543.12,401.12Z"/><path class="cls-5" d="M551.9,406.32a61.07,61.07,0,0,1,3.8,12.07C554.37,414.16,553.14,410.24,551.9,406.32Z"/><path class="cls-5" d="M541.84,379.39c3.47,1.76,5.66,4.86,7.85,8A47.69,47.69,0,0,0,541.84,379.39Z"/><path class="cls-5" d="M487.23,459.94c-.87,3.22-2.53,5.85-4,8.57C483.18,467.44,485.06,463.48,487.23,459.94Z"/><path class="cls-5" d="M491.17,433.66l-9.45,3a25,25,0,0,1,9.4-3.17A1.33,1.33,0,0,1,491.17,433.66Z"/><path class="cls-5" d="M560.38,363.8l-6.67-4.52C555.28,359.39,557.66,361,560.38,363.8Z"/><path class="cls-5" d="M534.24,391.51a19.57,19.57,0,0,1,5.81,6.79Z"/><path class="cls-5" d="M497.31,282.9q-1.28,4-2.54,8l-.26-.07c.2-.85.38-1.71.61-2.56s.56-1.92.89-2.87.65-1.75,1-2.62Z"/><path class="cls-5" d="M550.4,325.35l-6.55-7.55a43.62,43.62,0,0,1,6.65,7.51Z"/><path class="cls-5" d="M457.28,414.17c.76-1.32,3.39-2.93,6.13-3.66Z"/><path class="cls-5" d="M472.55,363.59c.21-.13.4-.34.62-.38,2.38-.45,4.76-.88,7.2-1.33-.05.22-.05.37-.09.38-2.27.47-4.55.94-6.83,1.37a2.86,2.86,0,0,1-.91-.1Z"/><path class="cls-5" d="M472.93,448.39a22.45,22.45,0,0,1-5,3.51A16.28,16.28,0,0,1,472.93,448.39Z"/><path class="cls-5" d="M507.45,471.47l4.11-6.77.18.11-3.88,6.87Z"/><path class="cls-5" d="M518.35,404.6l-4.23,6.14-.27-.2,4.33-6.07Z"/><path class="cls-5" d="M493.8,284.06a15.29,15.29,0,0,1,.44-1.92c.55-1.51,1.16-3,1.75-4.5l.32.14q-1.28,3.15-2.56,6.3Z"/><path class="cls-5" d="M478.69,467.5l2-3.9.12.06-1.75,4Z"/><path class="cls-5" d="M473.25,396.91l3.07-1.19.09.27-3.1,1.1Z"/><path class="cls-5" d="M485,393.13l-2.1.74.05.16,2.07-.84Z"/><path class="cls-5" d="M546,406.26l.63,1.88-.19.07c-.23-.62-.46-1.25-.7-1.87Z"/><path class="cls-5" d="M544.85,404l-1.2-2,.39-.18c.26.74.51,1.48.77,2.23Z"/><path class="cls-5" d="M526.87,358l-2.27-2h0l2.28,2.07Z"/><path class="cls-5" d="M555.08,408l.5,1.41-.19.08-.54-1.44Z"/><path class="cls-5" d="M557.48,436.35c-.07-.7-.15-1.4-.23-2.1h.33c0,.7-.07,1.4-.1,2.11Z"/><path class="cls-5" d="M515.87,304.79l1.31.7,0,0c-.44-.23-.88-.46-1.31-.7Z"/><path class="cls-5" d="M519.68,352.61,518.5,352l0,0,1.21.65Z"/><path class="cls-5" d="M550.5,325.31l1.2,1.43-.21.17-1.09-1.56Z"/><path class="cls-5" d="M513.92,303.5,513,303l0,0,.91.49Z"/><path class="cls-5" d="M484,343.34l-1.59.25v-.34l1.6.11Z"/><path class="cls-5" d="M526.84,358.06l1.42,1.06c-.07.08-.13.16-.2.23-.4-.43-.79-.87-1.19-1.31Z"/><path class="cls-5" d="M526.94,300.64l1,.52,0,0-1-.52Z"/><path class="cls-5" d="M493.11,433.17l-1.94.49a1.33,1.33,0,0,0-.05-.19l2-.29Z"/><path class="cls-5" d="M558.35,334.51l-.57-1,.19-.12c.18.32.37.64.56,1Z"/><path class="cls-5" d="M522.11,354.25l-.77-.42v0l.77.42Z"/><path class="cls-5" d="M532.35,304.42l-1.72-1.32h0l1.73,1.33Z"/><path class="cls-5" d="M530.63,303.1l-1.51-.8.09-.15,1.37,1Z"/><path class="cls-5" d="M524.54,299l.78.42v0l-.78-.42Z"/><path class="cls-5" d="M498.82,390.54l-.93.07v-.2l.94-.1Z"/><path class="cls-5" d="M493.75,284.08c-.13.41-.27.83-.41,1.24l-.16-.07c.21-.39.41-.79.62-1.19Z"/><path class="cls-5" d="M524.6,356l-1.23-.66.06-.1,1.13.75Z"/><path class="cls-5" d="M487.28,401.21l-.34.17c0-.06-.05-.13-.07-.2Z"/><path class="cls-5" d="M493.11,433.18l1.1-.38.06.32-1.16.05Z"/><path class="cls-5" d="M549.11,301.68l.35.57-.15.09-.33-.58Z"/><path class="cls-5" d="M547.24,299.47l.8.88-.22.16c-.18-.35-.35-.71-.53-1.06Z"/><path class="cls-5" d="M547.29,299.45c-.36-.43-.72-.87-1.09-1.3h-.05l1.09,1.31Z"/><path class="cls-5" d="M546.2,298.15l-1-.8.17-.19.78,1Z"/><path class="cls-5" d="M520.26,307.87l.59.32,0,.05-.62-.34Z"/><path class="cls-5" d="M544.81,404c.23.34.46.68.7,1l-.32.16c-.11-.39-.23-.79-.34-1.19Z"/><path class="cls-5" d="M519,306.91l-.53-.28,0-.05.5.27Z"/><path class="cls-5" d="M455.78,383.17a22.71,22.71,0,0,1-.27-2.66,67.49,67.49,0,0,1,1.85-15.12,24,24,0,0,1,5.53-10.18,66.65,66.65,0,0,0,6.36-8.4,24.22,24.22,0,0,0,3.05-6.05A4.8,4.8,0,0,1,475,338a30.81,30.81,0,0,1,21.94-3.15A55.72,55.72,0,0,1,508,338.59a90.4,90.4,0,0,1,8.13,4A45.12,45.12,0,0,1,522,347c2.45,2,4.7,4.33,7.18,6.33a10.7,10.7,0,0,0,3.75,1.81c1.82.53,3-.38,3.34-2.28a7.2,7.2,0,0,0-.66-4.33,39.34,39.34,0,0,0-7-10.06,47.12,47.12,0,0,0-13.72-10.06c-8.58-4.39-17.75-6.54-27.22-7.54a23.5,23.5,0,0,0-13,1.87c-.77.36-1.61,1.06-2.74.35a11.45,11.45,0,0,1,.88-1.67,57.6,57.6,0,0,0,6.12-10.71c1.68-3.69,3.07-7.52,4.63-11.28,2.36-5.68,3.54-11.73,5.23-17.61a47,47,0,0,1,5.64-11.67,38.47,38.47,0,0,1,5.55-6.83c3.33-3.32,7.21-5.35,12-5.41,2.29,0,4.58-.11,6.87-.19a21.27,21.27,0,0,1,9.78,2.34,54.12,54.12,0,0,1,15.37,10.72c5,5.05,10.2,10,14.28,15.94,2.44,3.56,4.78,7.21,6.91,11s4,7.85,6,11.78c.21.42.48.8.8,1.32,1.06-1.2,1.25-2.7,1.68-4,.73-2.29,1.21-4.67,1.92-7,.62-2,1.48-3.95,2.11-6,.41-1.28.53-2.65.88-4,1-3.83,2.09-7.64,3.07-11.49A12.9,12.9,0,0,1,584,274.3c.16-.24.59-.29,1.14-.53a16.46,16.46,0,0,1,0,1.9c-.24,1.65-.46,3.32-.8,5-.25,1.23-.83,2.41-1,3.65-1,7-3.25,13.62-5.37,20.3-.62,2-1.42,3.86-2.13,5.79-.11.29-.2.59-.38,1.15.56-.17.92-.25,1.26-.39,3.75-1.55,7.44-3.28,11.25-4.64,8.71-3.12,17.73-3.51,26.84-2.77a53.07,53.07,0,0,1,13.43,2.61c4.42,1.55,8.63,3.53,11.93,7,4.36,4.56,7,9.88,6,16.49a20.16,20.16,0,0,0,.76,10,11.88,11.88,0,0,1,.55,3.9,71.13,71.13,0,0,1-2,17,34.18,34.18,0,0,1-5.89,12,42.76,42.76,0,0,0-2.6,4.52c-.25.45-.47.92-.79,1.54a5.62,5.62,0,0,1-1-.86c-3.09-4.3-7-7.8-10.77-11.45a74.41,74.41,0,0,0-12.18-9.59c-2.08-1.31-4.09-2.76-6.23-3.94-7.22-4-14.84-6.08-23.11-4.91a26.93,26.93,0,0,0-4.23,1,9.34,9.34,0,0,0-1.8,1.06,1.53,1.53,0,0,0,1.5,1.21,49.88,49.88,0,0,1,10.55,2.72,28.37,28.37,0,0,1,4.15,1.82,65.13,65.13,0,0,1,14.16,10.32,57,57,0,0,1,15.22,25.53,24.84,24.84,0,0,1,.74,4.22,5.89,5.89,0,0,1-2,5.4c-2.47,2.1-4.88,4.31-7.5,6.19A71,71,0,0,0,598,423.22,91.64,91.64,0,0,1,588.15,435a30.3,30.3,0,0,1-5.72,4.12,8.64,8.64,0,0,1-1,.42,9.05,9.05,0,0,1-.29-1.76c0-1.36.18-2.73.28-4.09,0-.37,0-.74,0-1.12a60.22,60.22,0,0,0-1.2-13.61,64.8,64.8,0,0,0-8.9-21.94,26.55,26.55,0,0,0-5.87-6.65,33,33,0,0,0-3.75-2.26,1.61,1.61,0,0,0-2.06.28,6.23,6.23,0,0,0-.28,4,25.7,25.7,0,0,0,1.31,4.24c2.08,4.63,4.15,9.28,6.43,13.81a61.84,61.84,0,0,1,6,19.32,44.76,44.76,0,0,1-.9,17.36,6.11,6.11,0,0,1-2.95,4.23,48.07,48.07,0,0,1-6,3.05c-5.27,2-10.6,3.83-15.93,5.69a52.27,52.27,0,0,0-8.83,4,22,22,0,0,1-7.69,3,17.52,17.52,0,0,1-2.8.14,8.59,8.59,0,0,1-1.66-.41c.48-.94.82-1.71,1.25-2.42,1.84-3,3.85-5.93,5.53-9,1.54-2.82,2.76-5.82,4.08-8.76a69.29,69.29,0,0,0,3.87-11.23,55.79,55.79,0,0,0,1.79-19.21c-.38-3.95-1.49-7.58-4.19-10.57a4,4,0,0,0-4.26-1.24,4.81,4.81,0,0,0-2.93,2.23,11.1,11.1,0,0,0-1.7,6.51c.24,3.91.58,7.83.93,11.73a86.38,86.38,0,0,1-2,27.16,33.59,33.59,0,0,1-4.92,10.75A19.25,19.25,0,0,1,512,471.34a22.74,22.74,0,0,1-4,.77c-3.73.26-7.46.39-11,.56-.82-.8-.66-1.33-.25-1.92a80.23,80.23,0,0,0,7.29-13.14,23.92,23.92,0,0,0,2.43-9.95,35.86,35.86,0,0,0-.51-5.05,2.49,2.49,0,0,0-2.18-2.2,2.45,2.45,0,0,0-2.55,1.48,17.08,17.08,0,0,0-2.21,8.77,26.49,26.49,0,0,1-.88,5.63,31.63,31.63,0,0,1-8.29,14.84,64.07,64.07,0,0,0-6.85-1.82,44.87,44.87,0,0,0-7.15-.41c-2.37,0-4.75.24-7.29.38,0-.45-.07-.95-.09-1.46-.17-3.65-.05-7.35-.58-10.95a102.82,102.82,0,0,0-2.69-10.95c-.62-2.35-1.26-4.71-2.08-7-.7-2,0-3.52,1.09-5a36.64,36.64,0,0,1,7.41-7.46c3.14-2.36,6.32-4.68,9.62-6.79a31,31,0,0,1,13.74-4.9c2.22-.22,4.43-.65,6.63-1.06a5.94,5.94,0,0,0,3.48-2c.95-1.1.92-1.87-.16-2.86a9.79,9.79,0,0,0-6.72-2.54,32,32,0,0,0-10.63,1.49c-9.11,3.09-18,6.82-26,12.26-.72.49-1.49.91-2.27,1.39a18.71,18.71,0,0,1-2.83-6.87,56.4,56.4,0,0,1-.71-16.15,4.8,4.8,0,0,1,1.36-2.92,33.11,33.11,0,0,1,11.19-7.94,82.13,82.13,0,0,1,18.79-5.81,124.54,124.54,0,0,1,20.66-1.92c1.71,0,3.42.13,5.12,0a9.62,9.62,0,0,0,3.27-.91,2.58,2.58,0,0,0,1.08-4,8.87,8.87,0,0,0-2.26-2.35,18.21,18.21,0,0,0-10.46-3.17c-4.05-.09-8.11.19-12.16.36-9.38.4-18,3.57-26.4,7.6-2.91,1.4-5.65,3.16-8.46,4.76ZM472.4,465.9l-.28-.16a12.57,12.57,0,0,1,.9-1.45c1.46-1.73,2.91-3.46,4.43-5.12,8.74-9.47,17.7-18.74,25.81-28.8a87.59,87.59,0,0,0,9.78-14.1c2.32-4.45,5.38-8.35,8.07-12.53.06-.09.14-.15.21-.24,2.37-2.85,4.3-6,6.75-8.84a76.1,76.1,0,0,0,5.81-8.23c1.91-2.9,3.73-5.87,5.53-8.84,1.5-2.48,2.9-5,4.35-7.54,3.11-5.39,6.36-10.71,9.28-16.2,3.13-5.88,6-11.92,8.88-17.9.88-1.8,1.66-3.66,2.44-5.51q2.05-4.89,4.07-9.8c.87-2.15,1.75-4.31,2.5-6.5a4.05,4.05,0,0,0,.1-2.31,21,21,0,0,0-1.59-3.76c-1.82-3.5-3.34-7.17-5.62-10.43-1.68-2.4-2.92-5.12-4.51-7.6-4.18-6.52-9.55-12-15-17.42-5.16-5.18-10.86-9.53-17.66-12.25a18.82,18.82,0,0,0-7.26-1.59c-2.76,0-5.51.11-8.27.22a14.09,14.09,0,0,0-8.22,3.1,25.55,25.55,0,0,0-2.6,2.5,45.92,45.92,0,0,0-6.74,8.7,43.66,43.66,0,0,0-5,12.82,92.55,92.55,0,0,1-4.6,14.65c-1,2.3-1.86,4.61-2.8,6.9a76.23,76.23,0,0,1-6.38,12.38c-.32.48-.54,1-1,1.87l1.83-.71a19.58,19.58,0,0,1,9-1.55c2.64.23,5.29.49,7.91.85A76.24,76.24,0,0,1,514.37,327a50.05,50.05,0,0,1,10.44,6.62,45,45,0,0,1,11.45,13.91,8.92,8.92,0,0,1,.83,5.85,3.33,3.33,0,0,1-4.32,2.71,14.81,14.81,0,0,1-4.32-2.1c-2.49-2-4.75-4.26-7.17-6.33a39.55,39.55,0,0,0-5.07-3.93,68.93,68.93,0,0,0-18.13-7.56A30.56,30.56,0,0,0,475,339.1a4.2,4.2,0,0,0-1.54,1.48c-1.43,2.4-2.65,4.93-4.17,7.26a95.29,95.29,0,0,1-5.61,7.78,25.81,25.81,0,0,0-5.37,10.11,76.78,76.78,0,0,0-1.81,14.8c0,.3,0,.61,0,1.08.71-.42,1-.58,1.33-.79a56.47,56.47,0,0,1,10.06-5.43c7.28-3.22,14.71-5.95,22.74-6.42,4.05-.23,8.1-.48,12.15-.56a24.64,24.64,0,0,1,10.78,2.15,10.06,10.06,0,0,1,4.67,3.81,3.66,3.66,0,0,1-1.29,5.34,9.54,9.54,0,0,1-3.23,1.07,32.52,32.52,0,0,1-3.56,0c-3.43.13-6.86.26-10.29.47a91.21,91.21,0,0,0-27.57,5.84c-5.8,2.25-11.17,5.21-15.3,10.26a59.72,59.72,0,0,0,.09,14,24.64,24.64,0,0,0,2.09,7.64c.18.41.43.79.67,1.22,1.51-1,2.88-2,4.29-2.86,6.54-4.15,13.67-7,20.84-9.73a36.85,36.85,0,0,1,10.22-2.12,15.25,15.25,0,0,1,10,2.4c1.89,1.23,2.18,2.74.72,4.48a6.32,6.32,0,0,1-3.69,2.23c-2.35.47-4.71.9-7.09,1.18a26.53,26.53,0,0,0-8.12,2.16A67.61,67.61,0,0,0,467.18,432a18.27,18.27,0,0,0-3.64,5c.91,2.92,1.77,5.87,2.75,8.79a54.16,54.16,0,0,1,3.17,19.83c0,.94,0,1.89,0,2.74,3.47-.15,6.83-.42,10.19-.4a22.52,22.52,0,0,1,9.72,2.28,4.3,4.3,0,0,0,.63-.48c2.85-3.47,5.42-7.12,6.73-11.52a22.23,22.23,0,0,0,1.07-4.79c.16-2.48.19-4.95,1.29-7.24a1,1,0,0,0,.11-.46,7.78,7.78,0,0,1,2-5,3.12,3.12,0,0,1,5.49.87,9.5,9.5,0,0,1,.49,1.83,23,23,0,0,1-2.1,14.08c-1.82,4-4.12,7.73-6.2,11.59-.41.76-.8,1.54-1.23,2.39,1.15,0,2.23.07,3.31.07a41.75,41.75,0,0,0,11.29-1.35,17.37,17.37,0,0,0,9-5.7,29.92,29.92,0,0,0,6.38-12.43,86.13,86.13,0,0,0,2-26.69c-.34-4.12-.71-8.24-1-12.37a12,12,0,0,1,2.15-7.35,5.36,5.36,0,0,1,6.89-1.86,9.16,9.16,0,0,1,3,3,19.75,19.75,0,0,1,3,9.27c.88,10.06-1.21,19.6-4.91,28.84-.73,1.82-1.59,3.58-2.31,5.39a70.82,70.82,0,0,1-6.66,12.22c-.75,1.15-1.49,2.32-2.43,3.77,1.1-.05,1.82,0,2.52-.11a20.91,20.91,0,0,0,7.87-3,55.68,55.68,0,0,1,9.86-4.38c5-1.73,10.07-3.44,15-5.36a58.38,58.38,0,0,0,6.5-3.41,4,4,0,0,0,1.86-2.8,45.21,45.21,0,0,0,.85-17.68,65.3,65.3,0,0,0-6.48-20.15c-2.07-4.05-3.94-8.2-5.75-12.38a25.45,25.45,0,0,1-1.46-5.17,7.27,7.27,0,0,1,.14-2.82c.39-1.94,1.54-2.66,3.29-1.9a20.48,20.48,0,0,1,4.42,2.61,29.87,29.87,0,0,1,7,8.33,68.07,68.07,0,0,1,8.09,21.43,98.71,98.71,0,0,1,1.08,10.92,9.23,9.23,0,0,1-.14,1.56c-.21,2-.15,4-.18,6.22,1.17-.75,2.08-1.26,2.91-1.88a29.5,29.5,0,0,0,2.63-2.23,93.29,93.29,0,0,0,10.08-12.08,68.53,68.53,0,0,1,15.18-15.18c2.37-1.7,4.55-3.69,6.87-5.49s2.81-4.29,2.26-7.09c-.08-.36-.14-.73-.23-1.09a55.66,55.66,0,0,0-11.36-22.08,58.5,58.5,0,0,0-13-11.47,42.43,42.43,0,0,0-18-7.09,9.22,9.22,0,0,1-2.26-.55,1.61,1.61,0,0,1-.43-3,5.42,5.42,0,0,1,1.76-1,30.15,30.15,0,0,1,4.39-1.05c7.62-1.06,14.8.6,21.6,4A83.09,83.09,0,0,1,619.6,361a106.72,106.72,0,0,1,15.66,15.43,6.16,6.16,0,0,0,.76.67c.39-.75.7-1.42,1.06-2.05.69-1.19,1.33-2.41,2.11-3.52a32.56,32.56,0,0,0,5-10.16,67.71,67.71,0,0,0,2.22-17.92,16.15,16.15,0,0,0-.77-4.5,18.68,18.68,0,0,1-.76-6.76c.08-.9.1-1.8.24-2.69.83-5.35-1.25-9.83-4.28-13.87a22.92,22.92,0,0,0-9.79-7.15,50,50,0,0,0-14.65-3.58c-7.65-.7-15.27-.72-22.82,1a66.86,66.86,0,0,0-11.38,3.85c-2.07.89-4.1,1.85-6.14,2.79a3.25,3.25,0,0,0-1.92,2.13c-.38,1.26-1,2.46-1.43,3.69-1.8,4.57-3.43,9.22-5.44,13.69-2.87,6.36-5.89,12.67-9.07,18.87S551.73,363,548.37,369c-2,3.54-4.08,7-6.2,10.48-2.34,3.82-4.76,7.59-7.17,11.36-1.73,2.71-3.41,5.45-5.3,8-3.84,5.26-7.79,10.44-11.72,15.63a52,52,0,0,0-4.09,5.7A62.48,62.48,0,0,1,504.84,433c-3,3.2-6,6.5-9.08,9.6-6.07,6-12.26,11.91-18.36,17.9C475.66,462.23,474.07,464.11,472.4,465.9Zm20.07-22,.22.22c.2-.16.42-.3.61-.47a155.91,155.91,0,0,0,13.47-14.32,34,34,0,0,0,2.46-2.78c1.16-1.75,2.1-3.65,3.22-5.44,1.42-2.27,2.86-4.54,4.4-6.73,1.08-1.52,2.35-2.89,3.5-4.35.85-1.07,1.68-2.16,2.48-3.26,2.69-3.76,5.45-7.47,8-11.3s5.2-8,7.75-12.1c2.74-4.38,5.48-8.75,8.11-13.2,2-3.44,4-6.94,5.85-10.51q6.9-13.57,13.6-27.24c1.26-2.55,2.24-5.24,3.29-7.9,1.19-3,2.31-6.12,3.46-9.19,1.32-3.56,2.71-7.1,4-10.69a119.82,119.82,0,0,0,4.43-15.8c.3-1.55.9-3,1.24-4.57.3-1.38.4-2.79.63-4.18.19-1.16.44-2.31.72-3.76a3.29,3.29,0,0,0-1.34,2c-1.43,4.24-2.06,8.69-3.45,12.94-1.05,3.24-1.86,6.56-2.81,9.84a151.87,151.87,0,0,1-5.2,15c-1.8,4.4-3.59,8.8-5.42,13.18-.77,1.85-1.62,3.67-2.43,5.51-1.3,2.94-2.54,5.92-3.93,8.83s-3,6-4.56,8.89q-2.75,5.08-5.63,10.09c-2.58,4.48-5.25,8.9-7.85,13.37s-5.12,8.84-8.07,13c-3.6,5.08-7.23,10.12-11.18,14.94a42.19,42.19,0,0,0-5.79,8.83,15.18,15.18,0,0,1-1.65,2.24,7.45,7.45,0,0,0-.68,1.07A60.46,60.46,0,0,1,506.7,427c-3.92,5-8.12,9.72-12.21,14.57C493.82,442.34,493.15,443.12,492.47,443.9Z"/><path class="cls-5" d="M547.94,351.17a5.46,5.46,0,0,1-4.31-2.47,13.52,13.52,0,0,1-1.1-2.1c-1.16-2.6-2.33-5.21-3.44-7.83-.53-1.26-1-2.58-1.39-3.87a3,3,0,0,1-.16-.94c0-1.16-.19-2.38.94-3.17s2.18-.3,3.19.3a14.7,14.7,0,0,1,6.68,9.21,38.6,38.6,0,0,1,1.3,7.15A3.92,3.92,0,0,1,547.94,351.17Zm0-1.18a3.58,3.58,0,0,0,.67-3.07c-.24-1.89-.57-3.78-1-5.64a14.37,14.37,0,0,0-3.19-6.48,23.68,23.68,0,0,0-3.24-2.92,1.73,1.73,0,0,0-2-.3,1.86,1.86,0,0,0-.62,2.14,19.09,19.09,0,0,0,1,3.66c1.29,3.12,2.67,6.21,4.06,9.29a8.28,8.28,0,0,0,1.34,2.12A2.89,2.89,0,0,0,547.9,350Z"/><path class="cls-4" d="M-194.9-74.33c39.51-13.56,74.21-16,102.37-16.06,57.58-.2,104.72,9.23,277.6,61.22C290,2.4,274.83-.41,307.13,8c123.15,32,169.5,27.61,175.22,50.19C491.67,95,380.84,156,319.93,182.62c-35.34,15.47-102,43.88-195.89,47.17-99.75,3.51-256.71-20.42-273.66-90.33-9.14-37.7,29-61.51,14.77-92.34-24.35-52.61-154-23.25-160.46-52.2C-299.82-25.21-241.38-58.39-194.9-74.33Z"/><path class="cls-6" d="M-77.89,212.57c28.8-26.78,84.56-17.22,194.9,3,88.91,16.29,176.15,32.28,176.45,56.46.25,19.25-54.67,42.56-103.36,45.17-51.19,2.73-68.58-18.87-98.93-4.52-32.08,15.17-25,45.14-60.53,70.76-28.36,20.43-74,31-103.63,13.18C-123,366.4-124.68,256.07-77.89,212.57Z"/><g class="cls-7"><path class="cls-5" d="M4.79,343.08a8.24,8.24,0,0,0,.85-.24,87,87,0,0,1,21.54-5.42c4.8-.61,9.67-1,14.25-2.89,3.6-1.47,7.39-2.5,10.87-4.21,5-2.44,9.77-5.3,14.62-8A26.85,26.85,0,0,1,81.86,319c7.65.4,14.55,3.22,21.31,6.56,3.83,1.9,7.67,3.78,11.64,5.34s8.23,2.71,12.33,4.11c2.41.82,4.86,1.61,6.55,3.75,1.12,1.42,1.11,2.51-.08,3.86a14.82,14.82,0,0,1-5.42,3.59,66.37,66.37,0,0,1-16,4.67c-5.09.83-10.23,1.14-15.38,1.53-12,.9-23.77-.45-35.43-2.79-7.16-1.44-14.13-3.89-21.16-6-3.43-1-6.75-2.56-10.24-3.24a34.69,34.69,0,0,0-19.64,1.9c-2,.77-3.88,1.64-5.84,2.39a14.22,14.22,0,0,0-6,4.22c-1.41,1.67-3.07,3.12-4.56,4.72q-6.54,7-13,14.06c.11.2.22.39.34.58a20.66,20.66,0,0,1,9.5-2.4,6.31,6.31,0,0,0,1.07-.34c2.52-.74,5-1.48,7.56-2.2,6.73-1.92,12.43.38,17.4,4.82,6.47,5.77,11.38,12.9,16,20.17A27,27,0,0,1,35.35,394a12.5,12.5,0,0,1,0,8.53,18.71,18.71,0,0,1-1.16,2.17,23.91,23.91,0,0,1-3-2.42,74,74,0,0,1-5.47-6.65,105.88,105.88,0,0,0-14.87-17.35c-3.7-3.41-7.26-7-12.08-8.95-6.57-2.61-12.82-2.42-18.93,1.39a31.94,31.94,0,0,0-6.61,6.1c-6.71,7.48-13.42,14.93-20.1,22.43-4,4.46-7.81,9-11.79,13.46a20.37,20.37,0,0,1-10.16,6.43c-1.25.33-2.52.63-3.38-1.16.39-.48.78-1,1.22-1.48Q-56.35,400.73-41.69,385A13.18,13.18,0,0,0-39,381.65c1.49-3.4,2.7-6.92,4-10.4,2.56-6.75,3.6-13.85,4.37-21a42,42,0,0,1,9.55-22.55c5.71-7,12.39-13,19-19,1.07-1,2.45-1.81,4-1.22a3.62,3.62,0,0,1,.86,3.7c-.66,2.57-1.18,5.29-2.42,7.58-2.69,4.94-5.68,9.71-8.75,14.42-4.31,6.61-8.79,13.1-13.21,19.63-1.78,2.64-3.46,5.37-5.4,7.88a48.73,48.73,0,0,0-8,14.21c-.42,1.23-1,2.4-1.51,3.59a18.26,18.26,0,0,0,3.6-3.26q17.44-19.53,36.57-37.35c3.59-3.34,7.44-6.42,10.8-10,4.42-4.68,7.87-10.16,11.17-15.71a5.79,5.79,0,0,0,.52-1.5,35,35,0,0,0,.67-14.07c-.85-5.27-2-10.5-3.23-15.7a58.72,58.72,0,0,1-1.2-22.05c.76-5.28,1.74-10.52,2.58-15.79.21-1.32.26-2.67.4-4.17-1.36-.29-2.43-.58-3.52-.75a32.5,32.5,0,0,1-15.49-7.37c-5.06-4.12-7.51-10-9-16.27a13.4,13.4,0,0,1,.15-5,2.59,2.59,0,0,1,3-2.23,6.52,6.52,0,0,1,2.55.74c1.71.93,3.3,2.09,5,3,4.41,2.4,8.82,4.83,13.32,7.07a14.26,14.26,0,0,1,5.61,4.4c3.39,4.93,7.93,8.42,12.74,11.68,2,1.39,4.13,2.76,6.06,4.31A27.74,27.74,0,0,1,56.58,260c.31,7.74-2.28,14.57-6,21-2.75,4.71-6,9.15-9.1,13.61-2.23,3.14-4.67,6.13-7,9.16-3.13,4-6.31,7.91-9.43,11.9-1.63,2.08-3.18,4.23-4.75,6.37a5.33,5.33,0,0,0-.44.92c5.53-4.09,11-8.27,16.66-12.29a172.84,172.84,0,0,1,25.88-15.15,35.07,35.07,0,0,0,10.36-7.9c4.52-4.83,7.84-10.68,12.71-15.23A49.31,49.31,0,0,0,90,266.56a45.84,45.84,0,0,1,8.91-9c9.27-6.8,19.75-10.16,31-11a34.86,34.86,0,0,1,8.66.88,12.84,12.84,0,0,1,7.12,4.1c2.07,2.25,2.3,4,.46,6.5a9.56,9.56,0,0,1-3.13,2.85,63.36,63.36,0,0,1-10.22,4.65c-8.75,2.71-17.61,5-26.42,7.5a64.67,64.67,0,0,0-21.15,9.81c-3.66,2.69-7.6,5-11.54,7.53,1,.49,1.79-.1,2.56-.38a105.49,105.49,0,0,1,21.1-5.42c8.72-1.29,17.5-.67,26.24-1.12,4.11-.21,8.22-.48,12.32-.84,3.28-.29,6.54-.8,9.83-1.13A45.9,45.9,0,0,1,163.59,283a44.9,44.9,0,0,1,12.56,6.5,54.07,54.07,0,0,1,6.46,5.25,11.4,11.4,0,0,1,2.51,3.74,4,4,0,0,1-2.82,5.86,15.42,15.42,0,0,1-5.11.42,86.07,86.07,0,0,1-20.64-5.07c-6.8-2.41-13-6.23-19.4-9.46a44.42,44.42,0,0,0-14.67-4.73,97.35,97.35,0,0,0-27.53.88c-.48.08-1,.26-1.43.39a2.53,2.53,0,0,0,1.43.65,90.58,90.58,0,0,0,14.69,1.71,90.06,90.06,0,0,1,9.85.71,35.51,35.51,0,0,1,22.06,10.61c4.25,4.39,8.75,8.52,13.09,12.82,2.77,2.74,5.19,5.73,5.89,9.78.73,4.26-.6,6.33-4.74,7.28a20.67,20.67,0,0,1-9.35-.35,38.34,38.34,0,0,1-10.62-4.2,123.87,123.87,0,0,1-11.49-7.17c-5.11-3.73-9.39-8.45-13.79-13-5.91-6.15-12-12.18-19.77-15.92-2.18-1.05-4.25-1.62-6.65-.77-4.23,1.5-8.59,2.65-12.77,4.27a73.2,73.2,0,0,0-13.52,6.67,326.18,326.18,0,0,0-29.18,21.24c-7.91,6.49-15.32,13.6-22.94,20.45-.43.38-.81.83-1.2,1.24C4.6,342.88,4.7,343,4.79,343.08Zm71.72-5.31a5.6,5.6,0,0,1-1.39.44c-10,.44-19.89.31-29.84,0a143.27,143.27,0,0,0-17.42.76c2.9.85,5.78,1.71,8.68,2.54,6.54,1.87,13,4.07,19.64,5.5,13.08,2.84,26.24,4.88,39.76,4,8.63-.54,17.14-1.35,25.43-3.88a63.88,63.88,0,0,0,8.15-3.22,22.44,22.44,0,0,0,3.61-2.58,3.7,3.7,0,0,0-2-3.23c-2.69-1.93-5.85-2.63-8.88-3.68-4.87-1.68-9.78-3.28-14.56-5.2-3.81-1.53-7.44-3.53-11.19-5.23a40.57,40.57,0,0,0-17-3.6,23.72,23.72,0,0,0-11.63,3c-3.09,1.71-6.21,3.37-9.24,5.18a66.16,66.16,0,0,1-15.83,6.86,17.42,17.42,0,0,0-2.27,1c0,.15.09.29.13.44,1.52-.05,3-.21,4.55-.15,3,.13,6,.5,8.95.56,6.58.12,13.16.1,19.75.18a23.62,23.62,0,0,1,2.63.33ZM90,288.21a19.64,19.64,0,0,0,2.68,1.64c3.47,1.43,6.23,3.92,9.17,6.14,6.74,5.11,12.14,11.71,18.33,17.43a76.89,76.89,0,0,0,17.1,11.67,38.33,38.33,0,0,0,9.6,3.71,34.6,34.6,0,0,0,5.56.67A11.53,11.53,0,0,0,156,329c3-.82,3.77-2,3.33-5.17a15.08,15.08,0,0,0-4.74-8.64q-6-6-12.09-11.89c-2.12-2-4.36-3.93-6.6-5.83a25.59,25.59,0,0,0-9.58-4.83c-6.09-1.79-12.36-2.21-18.66-2.33a3.76,3.76,0,0,0-.93.31,68.76,68.76,0,0,1,18.34,12.43C114.81,294.71,103.39,289.15,90,288.21Zm-56.39,9.6c2.48-6,4.88-12.11,6.86-18.31A53.73,53.73,0,0,0,43,257.63c-.47-4.67-2.26-8.85-4.36-12.91-2.89-5.59-6-11.1-9-16.63-.31-.58-.72-1.1-1.34-2-.14,1-.2,1.58-.28,2.13-1.1,7.46-2.17,14.91-3.32,22.36-1.29,8.39-2.22,16.81-.67,25.26.78,4.28,1.87,8.49,2.82,12.73,1.32,5.91,2.16,11.86,1.2,17.93a3.55,3.55,0,0,0,.08.85l.54.18C30.34,304.27,32.26,301.16,33.64,297.81Zm44.61-12.17a11,11,0,0,0,1.21-.56,23.84,23.84,0,0,0,2.29-1.45c8.5-6.3,18.21-9.8,28.21-12.64q11-3.12,22-6.4a38.21,38.21,0,0,0,10.42-4.75,12.3,12.3,0,0,0,2.82-2.56c1.25-1.6,1.1-3-.23-4.53a11,11,0,0,0-6.69-3.88,38.93,38.93,0,0,0-8.9-.78,58.52,58.52,0,0,0-27.31,9A46.28,46.28,0,0,0,90.8,267.72c-3.26,4.15-6.62,8.23-9.93,12.35a1.25,1.25,0,0,0-.27,1c.51-.43,1-.87,1.54-1.28,4.37-3.45,8.64-7,13.13-10.31a62.08,62.08,0,0,1,19.33-9,7.6,7.6,0,0,1,.83-.16c0,.14.09.29.14.43C100.56,265,89,274.62,78.25,285.64Zm53.5.25-.12.34a10,10,0,0,0,1,.6c3.17,1.51,6.44,2.84,9.52,4.53,10.17,5.6,20.63,10.38,32.21,12a24.5,24.5,0,0,0,6.68.07c3.17-.43,4.2-2.78,2.32-5.45a24.9,24.9,0,0,0-5.41-5.71c-4.31-3.14-8.78-6.1-13.94-7.7a37.12,37.12,0,0,0-13.5-1.81c-5.81.39-11.61,1.05-17.42,1.94A189.81,189.81,0,0,0,154.47,288l-.09.54Zm-95,13.05c3.55-4.91,7.1-9.82,10.47-14.86a48.18,48.18,0,0,0,6.63-13.71c3.21-11.51,1-21.77-7.78-30.11-1.41-1.33-3.1-2.37-4.64-3.56-3.27-2.54-6.51-5.09-9.77-7.62a6.81,6.81,0,0,0-.92-.44c.32.75.48,1.27.73,1.73,1.83,3.33,3.54,6.73,5.55,9.95,7.88,12.62,8.54,26.06,4.5,40A111.71,111.71,0,0,1,33,301.69a8.15,8.15,0,0,0-.52,1.26,11.44,11.44,0,0,0-.16,1.32C34,302.27,35.45,300.69,36.72,298.94ZM-1.47,309.75a117.22,117.22,0,0,0-17.25,17.18,47.35,47.35,0,0,0-4.24,5.6A61.58,61.58,0,0,0-27,340.89c-1.81,4.56-2.16,9.44-2.54,14.36,6.07-12.79,13.36-24.7,23.24-34.8-1.65,2-3.32,4.05-4.93,6.13s-3.2,4-4.58,6.19c-2.52,4-5.06,8-7.23,12.13-2.72,5.24-5.11,10.66-7.53,16.06a10,10,0,0,0-.66,4.23,6.67,6.67,0,0,0,.56-.65c2.45-3.75,4.88-7.5,7.35-11.24C-20,348.18-16.53,343.1-13.2,338c4-6.12,8-12.18,11.65-18.49,1.51-2.63,2.08-5.83,3-8.8a9.1,9.1,0,0,0-.15-2.45A18.3,18.3,0,0,0-1.47,309.75Zm.11-98.4a9.9,9.9,0,0,0,.24,3.4C1,221.91,4,228.33,10.75,232.35a38.42,38.42,0,0,0,13.94,5.15,8.3,8.3,0,0,0,1-2.21c.42-3.16.78-6.34,1-9.52a4.57,4.57,0,0,0-2.59-4.67c-2.19-1.14-4.31-2.43-6.56-3.44a81.57,81.57,0,0,1-12-6.61,19,19,0,0,0-2.72-1.6,32.47,32.47,0,0,0-3.34-1A15.56,15.56,0,0,0-1.36,211.35ZM30,399.08c1,1.36,2.31,2.53,3.59,3.91A6,6,0,0,0,35,398.76a18.4,18.4,0,0,0-3.48-10.93,107.51,107.51,0,0,0-14.2-17.33c-2.81-2.78-5.94-5.08-9.91-6-4.66-1-9,.17-14,1.45,16.46,5.08,28,15.51,36.48,29.84-5.77-8.54-12.49-16.11-21.22-21.63C16.88,381.52,23.34,390.39,30,399.08ZM43.3,307.8a202.09,202.09,0,0,0-24.51,18.44,528.11,528.11,0,0,0-41.95,40.55c-9.56,10.38-18.88,21-28.42,31.38-5.72,6.23-11.67,12.23-17.51,18.33-.29.31-.54.66-1.12,1.37a14.22,14.22,0,0,0,7.1-3.12,78.55,78.55,0,0,0,6.74-6.67q15.17-17,30.21-34c4-4.52,7.87-9.16,12-13.6,4.6-5,9.43-9.77,14.06-14.73,6.5-7,13.91-12.9,21-19.16,4.69-4.12,9.54-8.05,14.41-11.95,2.87-2.3,5.92-4.38,8.89-6.56.52-.39,1-.82,1.5-1.24l-.21-.32C44.76,306.93,44,307.35,43.3,307.8Z"/><path class="cls-5" d="M76.51,337.77a6.51,6.51,0,0,0,2,.71c4.86-.12,9.72-.33,14.58-.52.19,0,.37-.15.53-.55l-17.14.43Z"/></g><path class="cls-8" d="M749.71,167.76C762.2,115.55,705.84,65.07,614.4-16.83c-32-28.65-59.77-48.53-79.08-39.65C512.3-45.9,519.43-2.81,503,1.91,474.92,10,446.3-114.39,374.75-131.91c-49-12-117.89,26.24-132.75,76C209.1,54.22,423.17,280.77,611.37,255.79,663.9,248.82,737.4,219.19,749.71,167.76Z"/></g></svg>