<svg id="Capa_1" data-name="Capa 1" xmlns="http://www.w3.org/2000/svg" viewBox="0 0 81.16 76.51"><defs><style>.cls-1{fill:#f0857e;}</style></defs><path class="cls-1" d="M565.72,529.17c0-.66.07-1.3.07-1.93a25.7,25.7,0,1,0-51.4,0c0,.53,0,1.06.05,1.6a25.71,25.71,0,0,0,10.4,49.21,25.44,25.44,0,0,0,14.88-4.75,25.42,25.42,0,0,0,14.88,4.75,25.71,25.71,0,0,0,11.12-48.88Zm-25.63-24.39a22.49,22.49,0,0,1,22.47,22.46c0,.25,0,.5,0,.74a59.26,59.26,0,0,0-9-1.58,13.47,13.47,0,0,0-26.9.94c0,.36.27,8.84,11.61,25.68a34,34,0,0,1-6.78,7.18c-11.28-15.22-13.33-27.65-13.63-30l-.05-.46a23.3,23.3,0,0,1-.14-2.47A22.48,22.48,0,0,1,540.09,504.78Zm10.16,21.31A179.8,179.8,0,0,0,530,525.8a10.23,10.23,0,0,1,20.27.29Zm-10,24.09a102.1,102.1,0,0,1-5.68-9.66l11.17.19A95.5,95.5,0,0,1,540.22,550.18Zm-21.72-6a85.13,85.13,0,0,0,10.07,17.59,10.23,10.23,0,0,1-10.07-17.59Zm6.34,30.64a22.45,22.45,0,0,1-10-42.57,54.32,54.32,0,0,0,2.44,8.83,13.43,13.43,0,0,0-4.64,17.08,13.47,13.47,0,0,0,17.89,6.29c1.41-.48,8.88-3.84,18.77-23.66,0,0,6.69-.35,9,1.48-10.75,19.65-16.61,25.39-18.56,27h0l-1,.78A22.23,22.23,0,0,1,524.84,574.81Zm36-30.44a10.22,10.22,0,0,1-7.67,16.94,16.47,16.47,0,0,1-2.37-.3C553.52,557,556.85,551.58,560.82,544.37Zm-6.22,30.44a22.16,22.16,0,0,1-12.14-3.57,48.61,48.61,0,0,0,6.35-7.43,14.26,14.26,0,0,0,4.21.74h.09A13.48,13.48,0,0,0,556,537.92c-2.9-.63-11.87-.57-11.87-.57l-11.2-.09a41.52,41.52,0,0,1-2.85-8.23c24.16-.84,32.55,2.35,33.17,2.6l.07,0a22.47,22.47,0,0,1-8.76,43.15Z" transform="translate(-499.14 -501.54)"/></svg>